<svg width="32" height="32" viewBox="0 0 32 32" fill="none" xmlns="http://www.w3.org/2000/svg">
<circle cx="16" cy="16" r="15.5" stroke="white"/>
<g clip-path="url(#clip0_18_75)">
<path d="M24.4105 12.1245C24.4105 12.1245 23.6567 11.7675 22.873 12C22.2865 12.1725 21.6445 12.618 21.2792 13.5413C20.575 15.3135 21.1847 18.4043 20.9462 18.4043C20.7077 18.4043 19.957 15.5565 18.9528 12.5903C17.9478 9.62476 17.08 6.54451 15.5117 6.79276C14.1213 7.01251 14.5525 10.5248 15.097 13.8143C15.5905 16.7963 16.1612 19.5878 15.835 19.5878C15.2522 19.5885 13.3405 11.3468 11.3808 11.6603C9.421 11.9723 11.9455 21.054 11.4153 21.0713C10.9795 21.0855 9.91075 15.5438 8.3245 15.798C7.123 15.9908 8.19325 20.3025 8.24275 21.5055C8.25475 21.807 8.3485 22.3733 7.897 22.3733H7V23.2118H8.4685C8.77 23.1968 9.0085 23.0813 9.12925 22.7843C9.53725 21.7778 8.46625 17.5028 8.71675 17.4713C8.88925 17.4503 9.2605 18.7515 9.77875 20.2238C10.2962 21.696 10.816 23.22 11.8008 23.22C13.9232 23.22 11.758 14.8793 12.1788 14.8793C12.4015 14.8793 13.0082 16.5743 13.675 18.4328C14.4917 20.7038 15.487 23.223 16.6885 23.223C18.1225 23.223 17.656 19.9695 17.212 16.8518C16.8273 14.1533 16.3765 11.6183 16.6172 11.6183C17.158 11.6183 19.2025 23.2185 21.6572 23.2185C22.8872 23.2185 22.9008 20.7938 22.9008 18.1785C22.9008 16.3425 22.7477 14.6685 23.899 14.2658C24.4465 14.0753 25 14.4143 25 14.4143L24.4105 12.1245Z" fill="white"/>
</g>
<defs>
<clipPath id="clip0_18_75">
<rect width="18" height="18" fill="white" transform="translate(7 6)"/>
</clipPath>
</defs>
</svg>
