<svg width="32" height="32" viewBox="0 0 32 32" fill="none" xmlns="http://www.w3.org/2000/svg">
<circle cx="16" cy="16" r="15.5" stroke="#CB164C"/>
<path d="M9.33332 23.5H17.35C17.8309 23.5003 18.3061 23.3963 18.743 23.1954C19.1799 22.9944 19.5681 22.7012 19.8808 22.3358L24.1325 17.3758C24.2215 17.2722 24.2837 17.1482 24.3135 17.0148C24.3433 16.8814 24.3399 16.7428 24.3035 16.611C24.2671 16.4793 24.1989 16.3586 24.1048 16.2594C24.0108 16.1603 23.8938 16.0858 23.7642 16.0425L22.1242 15.4958C21.7278 15.367 21.3058 15.3378 20.8954 15.411C20.4851 15.4841 20.0991 15.6572 19.7717 15.915L17.1175 18.0375L16.6033 17.0083C16.3279 16.4536 15.9026 15.987 15.3756 15.6615C14.8486 15.336 14.241 15.1646 13.6217 15.1667H9.33332C8.41416 15.1667 7.66666 15.9142 7.66666 16.8333V21.8333C7.66666 22.7525 8.41416 23.5 9.33332 23.5ZM9.33332 16.8333H13.6217C14.2575 16.8333 14.8283 17.1858 15.1125 17.7542L15.485 18.5H11.8333V20.1667H16.845C16.9732 20.165 17.0993 20.1336 17.2133 20.075L17.2158 20.0742L17.2192 20.0725H17.2217L17.2233 20.0717H17.2267L17.2275 20.0708C17.235 20.0733 17.23 20.07 17.23 20.07C17.2383 20.07 17.2317 20.0692 17.2317 20.0692H17.2325L17.2342 20.0683L17.2367 20.0675L17.2383 20.0667L17.24 20.0658L17.2425 20.065L17.2442 20.0642C17.2467 20.0642 17.245 20.0633 17.2458 20.0633L17.2483 20.0617L17.25 20.0608L17.2517 20.06L17.2542 20.0592L17.2558 20.0583H17.2567L17.2583 20.0575H17.2592L17.2608 20.0567L17.2625 20.0558C17.27 20.055 17.265 20.055 17.265 20.055L17.2667 20.0542C17.2988 20.0348 17.3294 20.0131 17.3583 19.9892L20.8133 17.225C21.0317 17.0517 21.3325 16.9975 21.5967 17.0858L22.0608 17.2408L18.6167 21.26C18.4582 21.4399 18.2634 21.584 18.045 21.6829C17.8266 21.7817 17.5897 21.833 17.35 21.8333H9.33332V16.8333V16.8333ZM19.3333 7.66667H19.3192C19.1833 7.66833 18.4808 7.69917 17.6667 8.25417C16.8742 7.71417 16.1883 7.67083 16.0267 7.6675L16.0017 7.66667H15.9983C15.3308 7.66667 14.7025 7.9275 14.2325 8.39833C13.7608 8.87083 13.5 9.49833 13.5 10.1667C13.5 10.835 13.7608 11.4625 14.2175 11.92L17.0625 14.9083C17.1408 14.9896 17.2346 15.0542 17.3385 15.0983C17.4423 15.1424 17.554 15.1651 17.6668 15.1651C17.7797 15.165 17.8913 15.1421 17.9951 15.0979C18.0989 15.0536 18.1927 14.9889 18.2708 14.9075L21.1008 11.9342C21.5733 11.4625 21.8333 10.835 21.8333 10.1667C21.8333 9.49833 21.5725 8.87083 21.1017 8.39917C20.8703 8.16629 20.595 7.98163 20.2917 7.8559C19.9885 7.73016 19.6633 7.66584 19.335 7.66667H19.3333ZM20.1667 10.1667C20.1667 10.3892 20.08 10.5983 19.9075 10.7708L17.6667 13.125L15.4108 10.7558C15.2533 10.5983 15.1667 10.3892 15.1667 10.1667C15.1667 9.94417 15.2533 9.735 15.4117 9.57667C15.5623 9.42338 15.7675 9.33591 15.9825 9.33333C16.0033 9.33417 16.4008 9.36 16.8717 9.7375C16.9392 9.79167 17.0075 9.85333 17.0775 9.9225L17.6667 10.5117L18.2558 9.9225C18.3258 9.85333 18.3942 9.79167 18.4617 9.7375C18.9025 9.38333 19.275 9.33917 19.3383 9.33417C19.4469 9.33415 19.5545 9.35564 19.6547 9.3974C19.755 9.43917 19.846 9.50038 19.9225 9.5775C20.08 9.735 20.1667 9.94417 20.1667 10.1667Z" fill="#CB164C"/>
</svg>
