<svg width="32" height="32" viewBox="0 0 32 32" fill="none" xmlns="http://www.w3.org/2000/svg">
<circle cx="16" cy="16" r="15.5" stroke="white"/>
<path d="M20.2442 17.1932C19.3385 17.1932 18.433 16.9172 17.6074 16.3651L17.5789 16.3461C16.575 15.6746 15.4233 15.6748 14.4193 16.3464C12.7513 17.4625 10.7594 17.4626 9.09117 16.3464L7.22594 15.0985C7.08465 15.0041 7 14.8459 7 14.6766V9H8.02301V14.4059L9.66229 15.5027C10.9925 16.3925 12.5182 16.3926 13.8483 15.5027C15.1952 14.6016 16.8033 14.6016 18.15 15.5023L18.1784 15.5213C19.4916 16.3994 20.9978 16.3991 22.3106 15.5209L23.977 14.4061V9H25V14.6766C25 14.8459 24.9154 15.0041 24.7741 15.0985L22.8818 16.3645C22.056 16.917 21.1501 17.1932 20.2443 17.1932H20.2442Z" fill="white"/>
<path d="M18.8656 25.3282H13.2049V26.3453H18.8656V25.3282Z" fill="white"/>
<path d="M15.9996 23.575C15.8686 23.575 15.7377 23.5254 15.6379 23.426L12.8093 20.6138C12.6629 20.4684 12.6193 20.2497 12.6984 20.0597C12.7776 19.8696 12.9641 19.7457 13.171 19.7457H18.8283C19.0352 19.7457 19.2217 19.8696 19.3008 20.0597C19.38 20.2497 19.3363 20.4684 19.19 20.6139L16.3613 23.4261C16.2615 23.5254 16.1306 23.575 15.9996 23.575H15.9996ZM14.4058 20.7628L15.9996 22.3474L17.5933 20.7628H14.4058Z" fill="white"/>
<path d="M18.8287 20.7628H13.1714C13.0356 20.7628 12.9055 20.7092 12.8096 20.6138L7.15067 14.9859C7.0548 14.8906 7.00089 14.7612 7.00089 14.6263V9H8.02389V14.4157L13.3833 19.7457H18.6168L24.1277 14.2668L24.8509 14.9859L19.1903 20.6138C19.0944 20.7092 18.9643 20.7628 18.8286 20.7628H18.8287Z" fill="white"/>
<path d="M16.5119 9H15.4889V15.3336H16.5119V9Z" fill="white"/>
</svg>
