<svg width="32" height="32" viewBox="0 0 32 32" fill="none" xmlns="http://www.w3.org/2000/svg">
<circle cx="16" cy="16" r="15.5" stroke="white"/>
<path d="M21.8466 23.5714H10.1534C9.31737 23.5705 8.51581 23.238 7.92462 22.6468C7.33343 22.0556 7.00091 21.2541 7 20.418V12.1534C7.00091 11.3174 7.33343 10.5158 7.92462 9.92462C8.51581 9.33343 9.31737 9.00091 10.1534 9H21.8466C22.6826 9.00091 23.4842 9.33343 24.0754 9.92462C24.6666 10.5158 24.9991 11.3174 25 12.1534V20.418C24.9991 21.2541 24.6666 22.0556 24.0754 22.6468C23.4842 23.238 22.6826 23.5705 21.8466 23.5714V23.5714ZM10.1534 9.85714C9.54462 9.85782 8.96095 10.1 8.53046 10.5305C8.09997 10.961 7.85782 11.5446 7.85714 12.1534V20.418C7.85782 21.0268 8.09997 21.6105 8.53046 22.041C8.96095 22.4715 9.54462 22.7136 10.1534 22.7143H21.8466C22.4554 22.7136 23.039 22.4715 23.4695 22.041C23.9 21.6105 24.1422 21.0268 24.1429 20.418V12.1534C24.1422 11.5446 23.9 10.961 23.4695 10.5305C23.039 10.1 22.4554 9.85782 21.8466 9.85714H10.1534Z" fill="white"/>
<path d="M16 18.1791C15.8896 18.1794 15.7834 18.137 15.7034 18.0609L9.388 12.024C9.34731 11.9851 9.31467 11.9386 9.29196 11.8871C9.26925 11.8356 9.25691 11.7801 9.25563 11.7238C9.25306 11.6102 9.29574 11.5002 9.37428 11.418C9.45282 11.3358 9.5608 11.2882 9.67444 11.2856C9.78809 11.2831 9.8981 11.3257 9.98028 11.4043L16 17.1583L22.0197 11.4043C22.0604 11.3654 22.1084 11.3349 22.1608 11.3145C22.2133 11.2942 22.2693 11.2844 22.3256 11.2856C22.3818 11.2869 22.4373 11.2993 22.4888 11.322C22.5403 11.3447 22.5868 11.3773 22.6257 11.418C22.6646 11.4587 22.6951 11.5066 22.7155 11.5591C22.7358 11.6116 22.7456 11.6676 22.7444 11.7238C22.7431 11.7801 22.7307 11.8356 22.708 11.8871C22.6853 11.9386 22.6527 11.9851 22.612 12.024L16.2966 18.0609C16.2166 18.137 16.1104 18.1794 16 18.1791Z" fill="white"/>
<path d="M9.74287 21.2854C9.65743 21.2854 9.57394 21.2599 9.50313 21.2121C9.43231 21.1643 9.37739 21.0964 9.34542 21.0172C9.31345 20.938 9.30589 20.851 9.32371 20.7675C9.34154 20.6839 9.38393 20.6076 9.44544 20.5483L14.194 15.9969C14.2761 15.9182 14.386 15.8754 14.4997 15.8778C14.6133 15.8802 14.7214 15.9276 14.8 16.0097C14.8787 16.0918 14.9215 16.2017 14.9191 16.3154C14.9167 16.429 14.8692 16.5371 14.7872 16.6157L10.0412 21.1663C9.96093 21.2432 9.85398 21.2859 9.74287 21.2854V21.2854Z" fill="white"/>
<path d="M22.2571 21.2846C22.1466 21.2846 22.0404 21.2419 21.9606 21.1654L17.2137 16.6157C17.1731 16.5768 17.1405 16.5302 17.1179 16.4787C17.0952 16.4271 17.083 16.3716 17.0818 16.3154C17.0806 16.2591 17.0905 16.2031 17.1109 16.1507C17.1313 16.0983 17.1619 16.0503 17.2009 16.0097C17.2398 15.9691 17.2864 15.9365 17.3379 15.9139C17.3894 15.8912 17.4449 15.879 17.5012 15.8778C17.5575 15.8766 17.6134 15.8865 17.6659 15.9069C17.7183 15.9273 17.7662 15.9579 17.8069 15.9969L22.5537 20.5466C22.6155 20.6058 22.6581 20.6821 22.6761 20.7657C22.6942 20.8493 22.6867 20.9364 22.6549 21.0158C22.623 21.0952 22.568 21.1632 22.4972 21.2111C22.4263 21.259 22.3427 21.2846 22.2571 21.2846V21.2846Z" fill="white"/>
</svg>
