<svg width="32" height="32" viewBox="0 0 32 32" fill="none" xmlns="http://www.w3.org/2000/svg">
<circle cx="16" cy="16" r="15.5" stroke="white"/>
<path d="M19.5 6.99998H16.832C13.434 6.96598 13 9.06898 13 11.345V13H11.5C11.4322 12.9909 11.3632 12.9976 11.2985 13.0195C11.2337 13.0415 11.1748 13.078 11.1264 13.1264C11.0781 13.1748 11.0415 13.2336 11.0196 13.2984C10.9976 13.3632 10.991 13.4322 11 13.5V16.5C10.991 16.5678 10.9976 16.6367 11.0196 16.7015C11.0415 16.7663 11.0781 16.8252 11.1264 16.8736C11.1748 16.9219 11.2337 16.9585 11.2985 16.9804C11.3632 17.0023 11.4322 17.009 11.5 17H13V24.5C12.9917 24.5679 12.999 24.6368 13.0214 24.7015C13.0437 24.7662 13.0806 24.8249 13.1291 24.8731C13.1777 24.9213 13.2366 24.9578 13.3014 24.9798C13.3662 25.0018 13.4351 25.0087 13.503 25H16.558C16.853 25.034 17.092 24.795 16.998 24.5L17 17H19.5C19.5678 17.009 19.6368 17.0023 19.7016 16.9804C19.7664 16.9585 19.8252 16.9219 19.8736 16.8736C19.922 16.8252 19.9585 16.7663 19.9804 16.7015C20.0024 16.6367 20.0091 16.5678 20 16.5V13.5C20.0091 13.4322 20.0024 13.3632 19.9804 13.2984C19.9585 13.2336 19.922 13.1748 19.8736 13.1264C19.8252 13.078 19.7664 13.0415 19.7016 13.0195C19.6368 12.9976 19.5678 12.9909 19.5 13H16.997L17 11.5C17.097 10.861 17.097 10.965 17.69 11H19.479C19.618 10.969 19.766 10.986 19.87 10.885C19.974 10.784 20.034 10.646 19.999 10.5V7.49998C20.0082 7.43224 20.0017 7.36328 19.9799 7.29848C19.9581 7.23368 19.9216 7.17478 19.8733 7.12639C19.8251 7.078 19.7662 7.04141 19.7015 7.01949C19.6367 6.99756 19.5678 6.99088 19.5 6.99998V6.99998ZM18.965 9.94398L17.711 9.89598C16.158 9.89598 16.028 10.739 16.028 11.602L16.024 13.498C16.0239 13.5682 16.0376 13.6377 16.0644 13.7026C16.0912 13.7675 16.1305 13.8265 16.1801 13.8762C16.2297 13.9259 16.2886 13.9653 16.3534 13.9922C16.4183 14.0191 16.4878 14.033 16.558 14.033H19V15.965H16.56C16.4183 15.965 16.2824 16.0212 16.1821 16.1213C16.0818 16.2214 16.0253 16.3573 16.025 16.499L16.024 24H14V16.5C14 16.205 13.799 15.966 13.503 15.966H12V14.034H13.503C13.5732 14.0341 13.6427 14.0204 13.7075 13.9936C13.7724 13.9668 13.8313 13.9275 13.881 13.878C13.981 13.777 13.999 13.641 13.999 13.499V11.344C13.999 9.10198 14.452 8.03398 16.831 8.03398H18.964V9.94398H18.965Z" fill="white"/>
</svg>
