<svg width="32" height="32" viewBox="0 0 32 32" fill="none" xmlns="http://www.w3.org/2000/svg">
<circle cx="16" cy="16" r="15.5" stroke="white"/>
<path d="M15.0476 12.1905C15.0476 11.6645 15.474 11.2381 16 11.2381C16.526 11.2381 16.9524 11.6645 16.9524 12.1905V19.7302C16.9524 20.2561 16.526 20.6825 16 20.6825C15.474 20.6825 15.0476 20.2561 15.0476 19.7302V12.1905Z" fill="white"/>
<path d="M19.6508 16.3175C19.6508 15.7915 20.0772 15.3651 20.6032 15.3651C21.1292 15.3651 21.5556 15.7915 21.5556 16.3175V20.9206C21.5556 21.4466 21.1292 21.873 20.6032 21.873C20.0772 21.873 19.6508 21.4466 19.6508 20.9206V16.3175Z" fill="white"/>
<path d="M10.5238 11.0794C10.5238 10.5534 10.9502 10.127 11.4762 10.127C12.0022 10.127 12.4286 10.5534 12.4286 11.0794V15.6825C12.4286 16.2085 12.0022 16.6349 11.4762 16.6349C10.9502 16.6349 10.5238 16.2085 10.5238 15.6825V11.0794Z" fill="white"/>
<path d="M15.0476 6.95238C15.0476 6.4264 15.474 6 16 6C16.526 6 16.9524 6.4264 16.9524 6.95238V8.38095C16.9524 8.90694 16.526 9.33333 16 9.33333C15.474 9.33333 15.0476 8.90694 15.0476 8.38095V6.95238Z" fill="white"/>
<path d="M19.6508 11.0794C19.6508 10.5534 20.0772 10.127 20.6032 10.127C21.1292 10.127 21.5556 10.5534 21.5556 11.0794V12.5079C21.5556 13.0339 21.1292 13.4603 20.6032 13.4603C20.0772 13.4603 19.6508 13.0339 19.6508 12.5079V11.0794Z" fill="white"/>
<path d="M10.5238 19.4921C10.5238 18.9661 10.9502 18.5397 11.4762 18.5397C12.0022 18.5397 12.4286 18.9661 12.4286 19.4921V20.9206C12.4286 21.4466 12.0022 21.873 11.4762 21.873C10.9502 21.873 10.5238 21.4466 10.5238 20.9206V19.4921Z" fill="white"/>
<path d="M15.0476 23.619C15.0476 23.0931 15.474 22.6667 16 22.6667C16.526 22.6667 16.9524 23.0931 16.9524 23.619V25.0476C16.9524 25.5736 16.526 26 16 26C15.474 26 15.0476 25.5736 15.0476 25.0476V23.619Z" fill="white"/>
<path d="M24.0952 15.2857C24.0952 14.7597 24.5216 14.3333 25.0476 14.3333C25.5736 14.3333 26 14.7597 26 15.2857V16.7143C26 17.2403 25.5736 17.6667 25.0476 17.6667C24.5216 17.6667 24.0952 17.2403 24.0952 16.7143V15.2857Z" fill="white"/>
<path d="M6 15.2857C6 14.7597 6.4264 14.3333 6.95238 14.3333C7.47837 14.3333 7.90476 14.7597 7.90476 15.2857V16.7143C7.90476 17.2403 7.47837 17.6667 6.95238 17.6667C6.4264 17.6667 6 17.2403 6 16.7143V15.2857Z" fill="white"/>
</svg>
