<svg width="364" height="161" viewBox="0 0 364 161" fill="none" xmlns="http://www.w3.org/2000/svg">
<path d="M282.209 42.5192C282.209 40.5756 284.074 39 286.374 39C288.674 39 290.539 40.5756 290.539 42.5192V157.481C290.539 159.424 288.674 161 286.374 161C284.074 161 282.209 159.424 282.209 157.481V42.5192Z" fill="white"/>
<path d="M325.94 54.25C325.94 52.3064 327.805 50.7308 330.105 50.7308C332.405 50.7308 334.269 52.3064 334.269 54.25V145.75C334.269 147.694 332.405 149.269 330.105 149.269C327.805 149.269 325.94 147.694 325.94 145.75V54.25Z" fill="white"/>
<path d="M296.786 58.9423C296.786 56.9987 298.651 55.4231 300.951 55.4231C303.251 55.4231 305.116 56.9987 305.116 58.9423V141.058C305.116 143.001 303.251 144.577 300.951 144.577C298.651 144.577 296.786 143.001 296.786 141.058V58.9423Z" fill="white"/>
<path d="M340.517 68.3269C340.517 66.3833 342.381 64.8077 344.682 64.8077C346.982 64.8077 348.846 66.3833 348.846 68.3269V131.673C348.846 133.617 346.982 135.192 344.682 135.192C342.381 135.192 340.517 133.617 340.517 131.673V68.3269Z" fill="white"/>
<path d="M253.056 68.3269C253.056 66.3833 254.92 64.8077 257.22 64.8077C259.521 64.8077 261.385 66.3833 261.385 68.3269V131.673C261.385 133.617 259.521 135.192 257.22 135.192C254.92 135.192 253.056 133.617 253.056 131.673V68.3269Z" fill="white"/>
<path d="M311.363 85.9231C311.363 83.9795 313.228 82.4038 315.528 82.4038C317.828 82.4038 319.693 83.9795 319.693 85.9231V114.077C319.693 116.021 317.828 117.596 315.528 117.596C313.228 117.596 311.363 116.021 311.363 114.077V85.9231Z" fill="white"/>
<path d="M355.094 89.4423C355.094 87.4987 356.958 85.9231 359.258 85.9231C361.559 85.9231 363.423 87.4987 363.423 89.4423V110.558C363.423 112.501 361.559 114.077 359.258 114.077C356.958 114.077 355.094 112.501 355.094 110.558V89.4423Z" fill="white"/>
<path d="M238.479 85.9231C238.479 83.9795 240.343 82.4038 242.644 82.4038C244.944 82.4038 246.808 83.9795 246.808 85.9231V114.077C246.808 116.021 244.944 117.596 242.644 117.596C240.343 117.596 238.479 116.021 238.479 114.077V85.9231Z" fill="white"/>
<path d="M267.633 83.5769C267.633 81.6333 269.497 80.0577 271.797 80.0577C274.097 80.0577 275.962 81.6333 275.962 83.5769V116.423C275.962 118.367 274.097 119.942 271.797 119.942C269.497 119.942 267.633 118.367 267.633 116.423V83.5769Z" fill="white"/>
<path d="M223.902 96.4808C223.902 94.5371 225.767 92.9615 228.067 92.9615C230.367 92.9615 232.232 94.5371 232.232 96.4808V103.519C232.232 105.463 230.367 107.038 228.067 107.038C225.767 107.038 223.902 105.463 223.902 103.519V96.4808Z" fill="white"/>
<path d="M208 90.2895C208 88.3459 209.865 86.7703 212.165 86.7703C214.465 86.7703 216.33 88.3459 216.33 90.2895V111.405C216.33 113.349 214.465 114.924 212.165 114.924C209.865 114.924 208 113.349 208 111.405V90.2895Z" fill="white"/>
<path d="M66.4513 42.5192V157.481C66.4513 159.248 64.7381 160.75 62.5324 160.75C60.3268 160.75 58.6136 159.248 58.6136 157.481V42.5192C58.6136 40.7517 60.3268 39.25 62.5324 39.25C64.7381 39.25 66.4513 40.7517 66.4513 42.5192ZM110.224 54.25V145.75C110.224 147.518 108.511 149.019 106.305 149.019C104.099 149.019 102.386 147.518 102.386 145.75V54.25C102.386 52.4825 104.099 50.9808 106.305 50.9808C108.511 50.9808 110.224 52.4825 110.224 54.25ZM81.0422 58.9423V141.058C81.0422 142.825 79.329 144.327 77.1233 144.327C74.9177 144.327 73.2045 142.825 73.2045 141.058V58.9423C73.2045 57.1748 74.9177 55.6731 77.1233 55.6731C79.329 55.6731 81.0422 57.1748 81.0422 58.9423ZM124.815 68.3269V131.673C124.815 133.441 123.102 134.942 120.896 134.942C118.69 134.942 116.977 133.441 116.977 131.673V68.3269C116.977 66.5594 118.69 65.0577 120.896 65.0577C123.102 65.0577 124.815 66.5594 124.815 68.3269ZM37.2695 68.3269V131.673C37.2695 133.441 35.5563 134.942 33.3506 134.942C31.145 134.942 29.4318 133.441 29.4318 131.673V68.3269C29.4318 66.5594 31.145 65.0577 33.3506 65.0577C35.5563 65.0577 37.2695 66.5594 37.2695 68.3269ZM95.6331 85.9231V114.077C95.6331 115.844 93.9199 117.346 91.7142 117.346C89.5086 117.346 87.7954 115.844 87.7954 114.077V85.9231C87.7954 84.1555 89.5086 82.6538 91.7142 82.6538C93.9199 82.6538 95.6331 84.1555 95.6331 85.9231ZM142.406 89.4423V110.558C142.406 112.325 140.693 113.827 138.487 113.827C136.281 113.827 134.568 112.325 134.568 110.558V89.4423C134.568 87.6748 136.281 86.1731 138.487 86.1731C140.693 86.1731 142.406 87.6748 142.406 89.4423ZM22.6786 85.9231V114.077C22.6786 115.844 20.9654 117.346 18.7597 117.346C16.5541 117.346 14.8409 115.844 14.8409 114.077V85.9231C14.8409 84.1555 16.5541 82.6538 18.7597 82.6538C20.9654 82.6538 22.6786 84.1555 22.6786 85.9231ZM51.8604 83.5769V116.423C51.8604 118.191 50.1472 119.692 47.9415 119.692C45.7359 119.692 44.0227 118.191 44.0227 116.423V83.5769C44.0227 81.8094 45.7359 80.3077 47.9415 80.3077C50.1472 80.3077 51.8604 81.8094 51.8604 83.5769ZM156.997 96.4808V103.519C156.997 105.287 155.284 106.788 153.078 106.788C150.872 106.788 149.159 105.287 149.159 103.519V96.4808C149.159 94.7132 150.872 93.2115 153.078 93.2115C155.284 93.2115 156.997 94.7132 156.997 96.4808ZM8.08766 96.4808V103.519C8.08766 105.287 6.3745 106.788 4.16883 106.788C1.96316 106.788 0.25 105.287 0.25 103.519V96.4808C0.25 94.7132 1.96316 93.2115 4.16883 93.2115C6.3745 93.2115 8.08766 94.7132 8.08766 96.4808ZM171.75 86.7703V114.924C171.75 116.692 170.037 118.193 167.831 118.193C165.625 118.193 163.912 116.692 163.912 114.924V86.7703C163.912 85.0028 165.625 83.5011 167.831 83.5011C170.037 83.5011 171.75 85.0028 171.75 86.7703Z" stroke="white" stroke-width="0.5"/>
</svg>
