<svg width="62" height="56" viewBox="0 0 62 56" fill="none" xmlns="http://www.w3.org/2000/svg">
<path d="M30.5694 3.37783C16.9361 3.37783 5.62838 14.3827 4.4861 28.5427H5.57342V48.4719H3.04005C1.36108 48.4719 0 47.1108 0 45.4318V31.9205C0 30.96 0.40089 30.0932 1.04447 29.4781C1.75752 13.1407 14.6337 0 30.5694 0C46.5051 0 59.3812 13.1407 60.0943 29.4781C60.7379 30.0932 61.1387 30.96 61.1387 31.9205V45.4318C61.1387 47.1108 59.7777 48.4719 58.0987 48.4719H55.5653V28.5427H56.6526C55.5104 14.3827 44.2027 3.37783 30.5694 3.37783Z" fill="white"/>
<path d="M55.0587 30.0627C55.0587 28.5703 53.8488 27.3604 52.3564 27.3604H52.1875C50.6951 27.3604 49.4852 28.5703 49.4852 30.0627V47.1208C49.4852 48.6132 50.6951 49.823 52.1875 49.823H52.3564C53.8488 49.823 55.0587 48.6132 55.0587 47.1208V30.0627Z" fill="white"/>
<path d="M11.6535 30.0627C11.6535 28.5703 10.4437 27.3604 8.95123 27.3604H8.78234C7.28992 27.3604 6.08008 28.5703 6.08008 30.0627V47.1208C6.08008 48.6132 7.28992 49.823 8.78234 49.823H8.95123C10.4437 49.823 11.6535 48.6132 11.6535 47.1208V30.0627Z" fill="white"/>
<path d="M30.5694 55.9031C40.1768 55.9031 47.9652 48.1147 47.9652 38.5073C47.9652 28.8998 40.1768 21.1115 30.5694 21.1115C20.9619 21.1115 13.1735 28.8998 13.1735 38.5073C13.1735 41.9813 14.1918 45.2174 15.9463 47.9335L13.2755 53.8494C12.6995 55.1251 14.0081 56.4354 15.2846 55.861L21.2296 53.1859C23.9278 54.9062 27.1322 55.9031 30.5694 55.9031Z" fill="white"/>
<path d="M28.3738 30.4005C28.3738 30.1206 28.6006 29.8938 28.8805 29.8938C29.1603 29.8938 29.3871 30.1206 29.3871 30.4005V46.9518C29.3871 47.2317 29.1603 47.4585 28.8805 47.4585C28.6006 47.4585 28.3738 47.2317 28.3738 46.9518V30.4005Z" fill="#D11C50"/>
<path d="M33.6939 32.0894C33.6939 31.8096 33.9207 31.5827 34.2005 31.5827C34.4804 31.5827 34.7072 31.8096 34.7072 32.0894V45.2629C34.7072 45.5428 34.4804 45.7696 34.2005 45.7696C33.9207 45.7696 33.6939 45.5428 33.6939 45.2629V32.0894Z" fill="#D11C50"/>
<path d="M30.1471 32.765C30.1471 32.4851 30.374 32.2583 30.6538 32.2583C30.9336 32.2583 31.1605 32.4851 31.1605 32.765V44.5874C31.1605 44.8672 30.9336 45.094 30.6538 45.094C30.374 45.094 30.1471 44.8672 30.1471 44.5874V32.765Z" fill="#D11C50"/>
<path d="M35.4672 34.1161C35.4672 33.8363 35.6941 33.6094 35.9739 33.6094C36.2537 33.6094 36.4806 33.8363 36.4806 34.1161V43.2362C36.4806 43.5161 36.2537 43.7429 35.9739 43.7429C35.6941 43.7429 35.4672 43.5161 35.4672 43.2362V34.1161Z" fill="#D11C50"/>
<path d="M24.8271 34.1161C24.8271 33.8363 25.0539 33.6094 25.3337 33.6094C25.6136 33.6094 25.8404 33.8363 25.8404 34.1161V43.2362C25.8404 43.5161 25.6136 43.7429 25.3337 43.7429C25.0539 43.7429 24.8271 43.5161 24.8271 43.2362V34.1161Z" fill="#D11C50"/>
<path d="M31.9205 36.6495C31.9205 36.3696 32.1473 36.1428 32.4272 36.1428C32.707 36.1428 32.9339 36.3696 32.9339 36.6495V40.7029C32.9339 40.9827 32.707 41.2095 32.4272 41.2095C32.1473 41.2095 31.9205 40.9827 31.9205 40.7029V36.6495Z" fill="#D11C50"/>
<path d="M37.2406 37.1561C37.2406 36.8763 37.4674 36.6495 37.7473 36.6495C38.0271 36.6495 38.2539 36.8763 38.2539 37.1561V40.1962C38.2539 40.476 38.0271 40.7029 37.7473 40.7029C37.4674 40.7029 37.2406 40.476 37.2406 40.1962V37.1561Z" fill="#D11C50"/>
<path d="M23.0537 36.6495C23.0537 36.3696 23.2805 36.1428 23.5604 36.1428C23.8402 36.1428 24.067 36.3696 24.067 36.6495V40.7029C24.067 40.9827 23.8402 41.2095 23.5604 41.2095C23.2805 41.2095 23.0537 40.9827 23.0537 40.7029V36.6495Z" fill="#D11C50"/>
<path d="M26.6004 36.3117C26.6004 36.0319 26.8273 35.805 27.1071 35.805C27.3869 35.805 27.6138 36.0319 27.6138 36.3117V41.0406C27.6138 41.3205 27.3869 41.5473 27.1071 41.5473C26.8273 41.5473 26.6004 41.3205 26.6004 41.0406V36.3117Z" fill="#D11C50"/>
<path d="M39.0139 38.1695C39.0139 37.8897 39.2408 37.6628 39.5206 37.6628C39.8005 37.6628 40.0273 37.8897 40.0273 38.1695V39.1828C40.0273 39.4627 39.8005 39.6895 39.5206 39.6895C39.2408 39.6895 39.0139 39.4627 39.0139 39.1828V38.1695Z" fill="#D11C50"/>
<path d="M21.2803 38.1695C21.2803 37.8897 21.5072 37.6628 21.787 37.6628C22.0668 37.6628 22.2937 37.8897 22.2937 38.1695V39.1828C22.2937 39.4627 22.0668 39.6895 21.787 39.6895C21.5072 39.6895 21.2803 39.4627 21.2803 39.1828V38.1695Z" fill="#D11C50"/>
</svg>
