<svg width="32" height="32" viewBox="0 0 32 32" fill="none" xmlns="http://www.w3.org/2000/svg">
<circle cx="16" cy="16" r="15.5" stroke="white"/>
<path d="M24.9478 12.14C24.9322 11.4038 24.7934 10.6754 24.5373 9.985C24.3239 9.40982 23.9857 8.88904 23.5471 8.46009C23.1167 8.02069 22.594 7.68247 22.0168 7.46989C21.3267 7.21367 20.5986 7.07493 19.8627 7.05941C18.8689 7.0108 18.5376 7 16.0018 7C13.466 7 13.1347 7.0108 12.14 7.05581C11.4038 7.07141 10.6754 7.21016 9.985 7.46629C9.40982 7.67971 8.88904 8.01788 8.46009 8.45649C8.02069 8.88691 7.68247 9.40962 7.46989 9.9868C7.21254 10.6764 7.07258 11.4042 7.05581 12.14C7.0108 13.1338 7 13.4651 7 16.0018C7 18.5385 7.0108 18.8698 7.05581 19.8636C7.07141 20.5998 7.21016 21.3282 7.46629 22.0186C7.67971 22.5938 8.01788 23.1146 8.45649 23.5435C8.88691 23.9829 9.40962 24.3211 9.9868 24.5337C10.6769 24.7899 11.405 24.9287 12.1409 24.9442C13.1311 24.9892 13.466 25 16.0027 25C18.5394 25 18.8707 24.9892 19.8645 24.9442C20.6007 24.9286 21.3291 24.7898 22.0195 24.5337C22.5919 24.3121 23.1117 23.9734 23.5457 23.5394C23.9797 23.1054 24.3184 22.5856 24.54 22.0132C24.7962 21.3231 24.935 20.595 24.9505 19.8591C24.9955 18.8689 25.0063 18.534 25.0063 15.9973C25.0063 13.4606 24.9928 13.1338 24.9478 12.14ZM24.0476 19.8222C24.0364 20.4605 23.9183 21.0925 23.6983 21.6918C23.522 22.1474 23.2526 22.5612 22.9072 22.9067C22.5619 23.2522 22.1482 23.5218 21.6927 23.6983C21.093 23.9182 20.4608 24.0363 19.8222 24.0476C18.8455 24.0926 18.5223 24.1034 16.0018 24.1034C13.4813 24.1034 13.1581 24.0926 12.1814 24.0476C11.5431 24.0364 10.9111 23.9183 10.3118 23.6983C9.85249 23.529 9.43716 23.2586 9.09652 22.9071C8.74521 22.5666 8.47481 22.1516 8.30526 21.6927C8.08535 21.0931 7.9673 20.4608 7.95599 19.8222C7.91098 18.8455 7.90018 18.5223 7.90018 16.0018C7.90018 13.4813 7.91098 13.1581 7.95599 12.1814C7.9672 11.5431 8.08526 10.9111 8.30526 10.3118C8.47458 9.85249 8.745 9.43716 9.09652 9.09652C9.43698 8.74521 9.85197 8.47481 10.3109 8.30526C10.9106 8.08535 11.5428 7.9673 12.1814 7.95599C13.159 7.91098 13.4858 7.90018 16.0018 7.90018C18.5178 7.90018 18.8446 7.91098 19.8222 7.95599C20.4605 7.9672 21.0925 8.08526 21.6918 8.30526C22.1511 8.47458 22.5664 8.745 22.9071 9.09652C23.2584 9.43698 23.5288 9.85197 23.6983 10.3109C23.9182 10.9106 24.0363 11.5428 24.0476 12.1814C24.0926 13.1581 24.1034 13.4813 24.1034 16.0018C24.1034 18.5223 24.0926 18.8455 24.0476 19.8222Z" fill="white"/>
<path d="M21.0257 10.1209C20.856 10.1207 20.69 10.1709 20.5488 10.2651C20.4075 10.3593 20.2975 10.4933 20.2324 10.6501C20.1674 10.8069 20.1503 10.9794 20.1834 11.1459C20.2164 11.3124 20.2982 11.4654 20.4182 11.5854C20.5382 11.7054 20.6912 11.7871 20.8577 11.8202C21.0242 11.8533 21.1967 11.8362 21.3535 11.7712C21.5103 11.7061 21.6443 11.5961 21.7385 11.4548C21.8327 11.3136 21.8829 11.1476 21.8827 10.9779C21.8822 10.7508 21.7918 10.5331 21.6312 10.3724C21.4705 10.2118 21.2528 10.1214 21.0257 10.1209Z" fill="white"/>
<path d="M16.0018 11.5666C15.1246 11.5666 14.2671 11.8267 13.5377 12.3141C12.8084 12.8014 12.2399 13.4941 11.9042 14.3045C11.5685 15.115 11.4807 16.0067 11.6518 16.8671C11.823 17.7274 12.2454 18.5177 12.8657 19.1379C13.4859 19.7582 14.2762 20.1806 15.1365 20.3518C15.9969 20.5229 16.8886 20.4351 17.6991 20.0994C18.5095 19.7637 19.2022 19.1952 19.6895 18.4659C20.1769 17.7365 20.437 16.879 20.437 16.0018C20.4358 14.8259 19.9681 13.6985 19.1366 12.867C18.3051 12.0355 17.1777 11.5678 16.0018 11.5666ZM16.0018 19.5368C15.3026 19.5368 14.6192 19.3295 14.0379 18.941C13.4565 18.5526 13.0034 18.0005 12.7359 17.3546C12.4683 16.7086 12.3983 15.9979 12.5347 15.3122C12.6711 14.6264 13.0078 13.9966 13.5022 13.5022C13.9966 13.0078 14.6264 12.6711 15.3122 12.5347C15.9979 12.3983 16.7087 12.4683 17.3546 12.7359C18.0005 13.0034 18.5526 13.4565 18.9411 14.0379C19.3295 14.6192 19.5368 15.3026 19.5368 16.0018C19.5356 16.939 19.1628 17.8374 18.5001 18.5001C17.8374 19.1628 16.939 19.5356 16.0018 19.5368Z" fill="white"/>
</svg>
