<svg width="32" height="32" viewBox="0 0 32 32" fill="none" xmlns="http://www.w3.org/2000/svg">
<circle cx="16" cy="16" r="15.5" stroke="white"/>
<path d="M10.3679 7.00518C10.065 6.98444 9.76102 7.02616 9.47488 7.12777C9.18874 7.22937 8.92652 7.38869 8.7045 7.59583C8.48248 7.80297 8.30539 8.05353 8.18422 8.33194C8.06304 8.61036 8.00037 8.91071 8.00008 9.21436C7.99756 9.51483 8.0568 9.81262 8.17413 10.0893C8.29145 10.3659 8.46435 10.6155 8.68211 10.8225C8.89987 11.0296 9.15784 11.1897 9.44004 11.293C9.72223 11.3962 10.0226 11.4404 10.3226 11.4227H10.3477C10.6494 11.4434 10.9522 11.402 11.2373 11.3011C11.5224 11.2002 11.7838 11.0419 12.0053 10.8361C12.2269 10.6303 12.4039 10.3812 12.5254 10.1043C12.647 9.82734 12.7105 9.52845 12.7121 9.22603C12.7136 8.9236 12.6532 8.62407 12.5345 8.34592C12.4158 8.06777 12.2413 7.81689 12.0219 7.60878C11.8024 7.40068 11.5427 7.23975 11.2586 7.13593C10.9746 7.03211 10.6723 6.98761 10.3704 7.00518H10.3679ZM10.3477 10.6132H10.3226C10.1278 10.6279 9.932 10.6018 9.74782 10.5366C9.56363 10.4714 9.39507 10.3686 9.25288 10.2345C9.1107 10.1005 8.99802 9.93835 8.92204 9.75835C8.84607 9.57834 8.80846 9.38447 8.81162 9.18911C8.81479 8.99375 8.85866 8.8012 8.94042 8.62375C9.02219 8.44629 9.14006 8.28784 9.28651 8.15851C9.43296 8.02917 9.60477 7.9318 9.79097 7.8726C9.97717 7.8134 10.1737 7.79368 10.3679 7.8147C10.5634 7.79676 10.7606 7.81997 10.9466 7.88283C11.1326 7.94569 11.3034 8.04681 11.4479 8.17968C11.5925 8.31254 11.7076 8.47421 11.7859 8.65427C11.8642 8.83433 11.9039 9.02879 11.9025 9.22512C11.9011 9.42146 11.8585 9.61532 11.7776 9.79423C11.6968 9.97314 11.5793 10.1331 11.4328 10.2639C11.2864 10.3946 11.1141 10.4933 10.9272 10.5534C10.7404 10.6136 10.5429 10.634 10.3477 10.6132V10.6132Z" fill="white"/>
<path d="M12.0809 12.4775H8.60964C8.50229 12.4775 8.39934 12.5202 8.32343 12.5961C8.24752 12.672 8.20488 12.7749 8.20488 12.8823V23.3251C8.20488 23.4325 8.24752 23.5354 8.32343 23.6113C8.39934 23.6872 8.50229 23.7299 8.60964 23.7299H12.0809C12.1882 23.7299 12.2912 23.6872 12.3671 23.6113C12.443 23.5354 12.4856 23.4325 12.4856 23.3251V12.8823C12.4856 12.7749 12.443 12.672 12.3671 12.5961C12.2912 12.5202 12.1882 12.4775 12.0809 12.4775ZM11.6761 22.9203H9.0144V13.2871H11.6761V22.9203Z" fill="white"/>
<path d="M20.5995 12.2322C19.5953 12.1918 18.616 12.551 17.8762 13.2312V12.8823C17.8762 12.7749 17.8336 12.672 17.7577 12.5961C17.6818 12.5202 17.5788 12.4775 17.4715 12.4775H14.0019C13.9471 12.4775 13.8929 12.4885 13.8425 12.51C13.7922 12.5315 13.7467 12.563 13.7089 12.6026C13.671 12.6422 13.6416 12.689 13.6224 12.7403C13.6032 12.7916 13.5946 12.8462 13.5971 12.9009C13.64 13.8586 13.5971 23.2272 13.5971 23.3219C13.5971 23.4292 13.6397 23.5322 13.7157 23.6081C13.7916 23.684 13.8945 23.7266 14.0019 23.7266H17.4715C17.5788 23.7266 17.6818 23.684 17.7577 23.6081C17.8336 23.5322 17.8762 23.4292 17.8762 23.3219V17.4933C17.8663 17.2584 17.8936 17.0235 17.9572 16.7971C18.0592 16.5042 18.2488 16.2497 18.5004 16.0681C18.7519 15.8865 19.0531 15.7866 19.3633 15.782C19.6976 15.782 20.716 15.782 20.716 17.7386V23.3243C20.716 23.4316 20.7587 23.5346 20.8346 23.6105C20.9105 23.6864 21.0134 23.7291 21.1208 23.7291H24.5952C24.7026 23.7291 24.8055 23.6864 24.8815 23.6105C24.9574 23.5346 25 23.4316 25 23.3243V17.3338C25 14.1403 23.3542 12.2322 20.5995 12.2322ZM24.1905 22.9179H21.5296V17.737C21.5296 15.3303 20.1753 14.9709 19.3674 14.9709C18.895 14.971 18.4343 15.1172 18.0482 15.3894C17.6622 15.6615 17.3697 16.0463 17.2108 16.4911C17.0989 16.8123 17.0502 17.1521 17.0675 17.4917V22.9155H14.4082C14.4155 21.2495 14.4406 15.1004 14.4155 13.2822H17.0667V14.3572C17.0666 14.4447 17.0948 14.5298 17.147 14.5998C17.1993 14.6699 17.2729 14.7212 17.3567 14.746C17.4405 14.7708 17.5301 14.7677 17.6121 14.7373C17.6941 14.707 17.764 14.6509 17.8115 14.5774C18.0894 14.0893 18.4968 13.6875 18.9886 13.4161C19.4803 13.1447 20.0375 13.0143 20.5986 13.0393C22.8807 13.0393 24.1897 14.605 24.1897 17.3338L24.1905 22.9179Z" fill="white"/>
</svg>
