<svg width="32" height="32" viewBox="0 0 32 32" fill="none" xmlns="http://www.w3.org/2000/svg">
<circle cx="16" cy="16" r="15.5" stroke="#CB164C"/>
<path d="M13.6584 9C11.1886 9 9.03619 9.23064 6.99175 9.88154C6.45079 9.99045 6 10.4018 6 11.1629C6 11.9227 6.55619 12.5941 7.30921 12.4826C7.63175 12.4826 7.85016 12.3634 8.06349 12.3634C9.78413 11.9278 11.7244 11.7228 13.6584 11.7228C17.4184 11.7228 21.2775 12.5685 23.8565 14.0855C24.179 14.1957 24.2883 14.3251 24.6108 14.3251C25.3651 14.3251 25.8908 13.7652 26 13.0041C26 12.3532 25.6775 11.938 25.2457 11.7228C22.0216 9.88026 17.741 9 13.6584 9ZM13.3016 13.7652C11.0451 13.7652 9.43746 14.0907 7.82476 14.5263C7.29016 14.7403 6.99175 15.0773 6.99175 15.7269C6.99175 16.2676 7.41841 16.8083 8.06349 16.8083C8.2819 16.8083 8.37587 16.7981 8.69841 16.6879C9.87937 16.3624 11.501 16.1677 13.2229 16.1677C16.7683 16.1677 19.854 17.039 22.1117 18.4497C22.3238 18.5599 22.5435 18.6496 22.8648 18.6496C23.5098 18.6496 23.9365 18.0986 23.9365 17.449C23.9365 17.0133 23.7333 16.5828 23.3016 16.3675C20.5079 14.6314 16.9575 13.7652 13.3016 13.7652ZM13.6584 18.4497C11.8337 18.4497 10.1029 18.6547 8.38095 19.0903C7.94921 19.2005 7.62667 19.5106 7.62667 20.0513C7.62667 20.487 7.96444 20.9329 8.50032 20.9329C8.60952 20.9329 8.9219 20.8124 9.13524 20.8124C10.5796 20.4726 12.0572 20.2976 13.5403 20.2909C16.2235 20.2909 18.6781 20.9418 20.7225 22.1334C20.941 22.2436 21.1835 22.3333 21.3968 22.3333C21.8286 22.3333 22.24 22.0079 22.3492 21.5735C22.3492 21.0277 22.1156 20.8265 21.793 20.6125C19.4273 19.2005 16.6641 18.4497 13.6584 18.4497Z" fill="#CB164C"/>
</svg>
