<svg width="32" height="32" viewBox="0 0 32 32" fill="none" xmlns="http://www.w3.org/2000/svg">
<circle cx="16" cy="16" r="15.5" stroke="white"/>
<path d="M23.2875 8.30417C23.1078 8.15523 22.8912 8.05769 22.6605 8.0219C22.4299 7.9861 22.1939 8.01338 21.9775 8.10084L7.04667 14.1283C6.80539 14.2275 6.59998 14.3977 6.4577 14.6163C6.31541 14.8349 6.24299 15.0917 6.25004 15.3524C6.2571 15.6132 6.34329 15.8656 6.49718 16.0763C6.65107 16.2869 6.86538 16.4457 7.11167 16.5317L10.3333 17.65L12.0792 23.4217C12.0825 23.4333 12.0933 23.4408 12.0983 23.4517C12.1163 23.4977 12.1426 23.5401 12.1758 23.5767C12.2263 23.6331 12.2916 23.6743 12.3642 23.6958C12.3725 23.6992 12.3783 23.7067 12.3867 23.7083H12.3917L12.3942 23.7092C12.4586 23.723 12.5256 23.7196 12.5883 23.6992C12.595 23.6975 12.6017 23.6975 12.6092 23.695C12.6694 23.6739 12.7239 23.6391 12.7683 23.5933C12.7733 23.5875 12.7817 23.5867 12.7867 23.5817L15.2975 20.81L18.9617 23.6475C19.1842 23.8217 19.4583 23.9158 19.7408 23.9158C20.3525 23.9158 20.88 23.4875 21.0058 22.89L23.7242 9.54167C23.7703 9.31507 23.754 9.08019 23.6771 8.86211C23.6002 8.64402 23.4656 8.4509 23.2875 8.30334V8.30417ZM12.99 18.7458L12.4008 21.61L11.1717 17.545L17.2675 14.37L13.1033 18.535C13.0457 18.5926 13.0063 18.666 12.99 18.7458V18.7458ZM20.1892 22.7225C20.1735 22.7981 20.1387 22.8683 20.0881 22.9266C20.0374 22.9848 19.9727 23.029 19.9 23.055C19.8291 23.0823 19.7523 23.0906 19.6772 23.0792C19.6021 23.0679 19.5313 23.0371 19.4717 22.99L15.5025 19.9158C15.4195 19.8518 15.3155 19.8214 15.2111 19.8306C15.1066 19.8399 15.0096 19.8882 14.9392 19.9658L13.1917 21.8917L13.78 19.0358L19.7708 13.0442C19.841 12.9738 19.8837 12.8806 19.8912 12.7815C19.8987 12.6824 19.8706 12.5839 19.8118 12.5038C19.7531 12.4236 19.6676 12.3671 19.5709 12.3444C19.4741 12.3217 19.3724 12.3343 19.2842 12.38L10.6483 16.8783L7.38417 15.7433C7.29762 15.7148 7.22213 15.6599 7.16822 15.5864C7.1143 15.5129 7.08463 15.4245 7.08333 15.3333C7.07918 15.2414 7.10374 15.1504 7.15362 15.0731C7.20349 14.9957 7.2762 14.9358 7.36167 14.9017L22.29 8.87417C22.3665 8.84167 22.4506 8.83116 22.5327 8.84382C22.6149 8.85648 22.6918 8.89181 22.755 8.94584C22.8178 8.99666 22.8653 9.06394 22.892 9.14017C22.9188 9.21639 22.9239 9.29856 22.9067 9.3775L20.1892 22.7233V22.7225Z" fill="white"/>
</svg>
