<svg width="32" height="32" viewBox="0 0 32 32" fill="none" xmlns="http://www.w3.org/2000/svg">
<circle cx="16" cy="16" r="15.5" stroke="white"/>
<path d="M12.809 23.7875C10.816 23.7876 8.86488 23.2153 7.18767 22.1387C7.10992 22.0887 7.05142 22.0137 7.0217 21.9262C6.99199 21.8386 6.99281 21.7436 7.02403 21.6565C7.05526 21.5695 7.11505 21.4956 7.19365 21.4469C7.27225 21.3982 7.36503 21.3776 7.45687 21.3884C8.87059 21.5518 10.2998 21.2655 11.5415 20.5701C10.9342 20.3846 10.3808 20.0547 9.92863 19.6087C9.4765 19.1627 9.1391 18.6138 8.94525 18.009C8.92831 17.9562 8.92229 17.9005 8.92756 17.8452C8.93283 17.79 8.94929 17.7364 8.97592 17.6877C9.00256 17.639 9.03882 17.5963 9.0825 17.5621C9.12618 17.5278 9.17636 17.5029 9.23 17.4886C8.75172 17.121 8.36413 16.6486 8.09702 16.1077C7.82992 15.5668 7.69042 14.9719 7.68925 14.3687C7.68924 14.2944 7.70771 14.2212 7.74298 14.1558C7.77826 14.0904 7.82925 14.0347 7.89136 13.9939C7.95126 13.9542 8.02049 13.9307 8.09223 13.9258C8.16397 13.9209 8.23574 13.9348 8.30048 13.9661L8.37494 14.0062C7.96871 13.3938 7.74179 12.6801 7.71981 11.9456C7.69783 11.2111 7.88167 10.4851 8.25056 9.84952C8.2842 9.79266 8.33093 9.74466 8.38686 9.70951C8.44279 9.67435 8.50631 9.65307 8.57213 9.64742C8.63814 9.64224 8.70442 9.65316 8.76527 9.67924C8.82613 9.70533 8.87975 9.74579 8.92152 9.79715C10.5304 11.7695 12.8542 13.0255 15.3856 13.2911C15.375 13.1732 15.3693 13.0546 15.3693 12.9351C15.3694 12.166 15.5949 11.4138 16.0178 10.7714C16.4408 10.129 17.0427 9.62465 17.7491 9.3206C18.4556 9.01655 19.2357 8.92616 19.9929 9.06058C20.7502 9.19501 21.4515 9.54837 22.0101 10.077C22.6782 9.92237 23.3185 9.6657 23.9085 9.31603C23.9799 9.27398 24.0624 9.2546 24.145 9.26047C24.2277 9.26634 24.3066 9.29717 24.3714 9.34888C24.4361 9.4006 24.4836 9.47075 24.5076 9.55007C24.5316 9.62939 24.531 9.71412 24.5058 9.79306C24.3822 10.179 24.1995 10.5433 23.9641 10.8731C24.1204 10.8183 24.2734 10.7561 24.4248 10.689C24.5058 10.6531 24.5962 10.6445 24.6825 10.6644C24.7689 10.6843 24.8464 10.7317 24.9034 10.7995C24.9607 10.8673 24.9943 10.9518 24.9993 11.0403C25.0044 11.1289 24.9805 11.2167 24.9313 11.2904C24.4729 11.9789 23.9043 12.5871 23.2481 13.0906C23.2481 13.1724 23.2481 13.2608 23.2481 13.3467C23.2617 14.7214 23.0009 16.0851 22.4812 17.3578C21.9614 18.6306 21.193 19.7869 20.2209 20.7591C19.2488 21.7313 18.0927 22.4999 16.82 23.0199C15.5473 23.5399 14.1837 23.8008 12.809 23.7875V23.7875ZM9.06717 22.2091C10.2519 22.7111 11.5255 22.9697 12.8123 22.9692C14.0793 22.9817 15.336 22.7413 16.509 22.2622C17.682 21.7831 18.7477 21.0748 19.6436 20.1789C20.5396 19.2829 21.2478 18.2173 21.727 17.0443C22.2061 15.8713 22.4465 14.6145 22.434 13.3475C22.434 13.201 22.434 13.0554 22.4242 12.9114C22.4208 12.8433 22.4346 12.7754 22.4642 12.714C22.4938 12.6525 22.5382 12.5994 22.5935 12.5595C22.8717 12.359 23.134 12.1375 23.3782 11.8968C23.1265 11.9536 22.8719 11.9973 22.6156 12.0277C22.5228 12.0386 22.429 12.0173 22.3499 11.9674C22.2708 11.9176 22.2111 11.8421 22.1809 11.7536C22.1507 11.6651 22.1517 11.5689 22.1837 11.4811C22.2158 11.3932 22.277 11.319 22.3571 11.2708C22.66 11.0889 22.9302 10.8574 23.1565 10.5859C22.7673 10.7336 22.3663 10.848 21.9578 10.928C21.8898 10.9414 21.8195 10.9373 21.7535 10.9161C21.6876 10.8949 21.628 10.8573 21.5806 10.8069C21.1108 10.307 20.4894 9.97593 19.8125 9.86491C19.1356 9.75388 18.4409 9.86909 17.8361 10.1927C17.2313 10.5163 16.75 11.0303 16.4668 11.655C16.1835 12.2798 16.1141 12.9805 16.2693 13.6486C16.2841 13.7101 16.2844 13.7742 16.2702 13.8358C16.256 13.8974 16.2277 13.9549 16.1875 14.0037C16.1474 14.053 16.0961 14.0919 16.0379 14.1174C15.9797 14.1429 15.9163 14.1541 15.8529 14.1502C13.1261 14.0109 10.5622 12.81 8.7096 10.8044C8.48232 11.457 8.47816 12.1665 8.69779 12.8217C8.91742 13.4769 9.34839 14.0406 9.92305 14.4243C9.99729 14.4735 10.0534 14.5456 10.083 14.6297C10.1125 14.7137 10.1138 14.8051 10.0867 14.8899C10.0571 14.9728 10.0026 15.0446 9.9307 15.0954C9.8588 15.1462 9.77298 15.1736 9.68494 15.1738C9.30637 15.1621 8.9315 15.0954 8.57213 14.9758C8.69206 15.5785 8.98729 16.1323 9.42079 16.5679C9.85429 17.0034 10.4067 17.3012 11.0089 17.424C11.099 17.4423 11.1803 17.4905 11.2396 17.5607C11.299 17.6309 11.333 17.7191 11.3361 17.811C11.3392 17.9029 11.3113 17.9932 11.2568 18.0673C11.2024 18.1413 11.1245 18.1949 11.0359 18.2193C10.6924 18.2996 10.3419 18.3462 9.98933 18.3584C10.2575 18.8262 10.6425 19.2164 11.1066 19.4909C11.5707 19.7654 12.098 19.9148 12.6372 19.9245C12.7218 19.9259 12.8039 19.9534 12.8723 20.0033C12.9406 20.0533 12.9918 20.1232 13.0187 20.2035C13.0456 20.2837 13.047 20.3703 13.0226 20.4514C12.9983 20.5325 12.9493 20.604 12.8826 20.6561C11.7826 21.523 10.4599 22.0613 9.06717 22.2091V22.2091Z" fill="white"/>
</svg>
