<svg width="32" height="32" viewBox="0 0 32 32" fill="none" xmlns="http://www.w3.org/2000/svg">
<circle cx="16" cy="16" r="15.5" stroke="white"/>
<path d="M16 23.2507C15.7501 23.2507 9.93461 23.2457 8.40471 22.8341C7.92824 22.7062 7.49379 22.4553 7.14496 22.1065C6.79613 21.7576 6.54519 21.3232 6.41734 20.8467C6.12833 19.2901 5.98882 17.7094 6.0007 16.1262C5.98884 14.5427 6.12836 12.9618 6.41734 11.4048C6.54506 10.9282 6.79594 10.4936 7.14478 10.1446C7.49362 9.79562 7.92814 9.54456 8.40471 9.41664C9.93461 9.00667 15.7534 9 16 9C16.2467 9 22.0655 9.005 23.5954 9.41664C24.0716 9.54526 24.5058 9.79655 24.8545 10.1454C25.2032 10.4943 25.4543 10.9286 25.5827 11.4048C25.871 12.9619 26.0105 14.5428 25.9994 16.1262C26.0105 17.7096 25.871 19.2905 25.5827 20.8476C25.4541 21.3241 25.2026 21.7586 24.8534 22.1075C24.5042 22.4564 24.0696 22.7075 23.5929 22.8358C22.0655 23.2457 16.25 23.2507 16 23.2507ZM16 9.83494C15.94 9.83494 10.0454 9.83994 8.61969 10.2216C8.28431 10.3117 7.97851 10.4884 7.73295 10.7339C7.48739 10.9795 7.31071 11.2853 7.22062 11.6207C6.95389 13.1075 6.82446 14.6157 6.83398 16.1262C6.82446 17.6367 6.95389 19.1449 7.22062 20.6317C7.31071 20.9671 7.48739 21.2729 7.73295 21.5185C7.97851 21.764 8.28431 21.9407 8.61969 22.0308C10.0454 22.4125 15.94 22.4174 16 22.4174C16.06 22.4174 21.9547 22.4125 23.3804 22.0308C23.7158 21.9407 24.0216 21.764 24.2671 21.5185C24.5127 21.2729 24.6894 20.9671 24.7795 20.6317C25.0458 19.1449 25.1752 17.6367 25.1661 16.1262C25.1752 14.6157 25.0458 13.1075 24.7795 11.6207V11.6207C24.6894 11.2853 24.5127 10.9795 24.2671 10.7339C24.0216 10.4884 23.7158 10.3117 23.3804 10.2216C21.9547 9.83994 16.0592 9.83494 16 9.83494V9.83494ZM14.0835 19.4176C13.973 19.4176 13.867 19.3738 13.7889 19.2956C13.7108 19.2175 13.6669 19.1115 13.6669 19.001V13.2514C13.6669 13.1783 13.6861 13.1064 13.7227 13.0431C13.7593 12.9797 13.8118 12.9271 13.8752 12.8906C13.9385 12.854 14.0104 12.8348 14.0835 12.8348C14.1566 12.8348 14.2285 12.854 14.2918 12.8906L19.2707 15.7654C19.334 15.802 19.3866 15.8546 19.4231 15.9179C19.4597 15.9812 19.479 16.0531 19.479 16.1262C19.479 16.1993 19.4597 16.2712 19.4231 16.3345C19.3866 16.3978 19.334 16.4504 19.2707 16.487L14.2918 19.3618C14.2285 19.3984 14.1566 19.4176 14.0835 19.4176ZM14.5001 13.973V18.2794L18.2291 16.1262L14.5001 13.973Z" fill="white"/>
</svg>
